<svg xmlns="http://www.w3.org/2000/svg" viewBox="0 0 1200 400" width="1200" height="400">
  <defs>
    <style>
      @import url('https://fonts.googleapis.com/css2?family=Inter:wght@400;600;800&amp;display=swap');
    </style>
  </defs>

  <!-- Background -->
  <rect width="1200" height="400" fill="#0F111A"/>

  <!-- VS Code Window Mock -->
  <rect x="80" y="60" width="440" height="280" rx="8" fill="#1A1D2E"/>
  <!-- Title bar -->
  <rect x="80" y="60" width="440" height="32" rx="8" fill="#252836"/>
  <rect x="80" y="84" width="440" height="8" fill="#252836"/>
  <!-- Window dots -->
  <circle cx="100" cy="76" r="5" fill="#FF5F57"/>
  <circle cx="118" cy="76" r="5" fill="#FEBC2E"/>
  <circle cx="136" cy="76" r="5" fill="#28C840"/>
  <!-- Title text -->
  <text x="300" y="80" font-family="Inter, SF Pro, Segoe UI, sans-serif" font-size="11" fill="#6B7280" text-anchor="middle">extension.ts — faaaaaahhh</text>

  <!-- Code lines -->
  <!-- Line numbers -->
  <text x="96" y="118" font-family="monospace" font-size="12" fill="#3D4254">14</text>
  <text x="96" y="138" font-family="monospace" font-size="12" fill="#3D4254">15</text>
  <text x="96" y="158" font-family="monospace" font-size="12" fill="#3D4254">16</text>
  <text x="96" y="178" font-family="monospace" font-size="12" fill="#3D4254">17</text>
  <text x="96" y="198" font-family="monospace" font-size="12" fill="#3D4254">18</text>
  <text x="96" y="218" font-family="monospace" font-size="12" fill="#3D4254">19</text>
  <text x="96" y="238" font-family="monospace" font-size="12" fill="#3D4254">20</text>

  <!-- Code content -->
  <text x="120" y="118" font-family="monospace" font-size="12" fill="#C792EA">const</text>
  <text x="162" y="118" font-family="monospace" font-size="12" fill="#F5F5F5">server</text>
  <text x="210" y="118" font-family="monospace" font-size="12" fill="#89DDFF">=</text>
  <text x="224" y="118" font-family="monospace" font-size="12" fill="#82AAFF">createServer</text>
  <text x="312" y="118" font-family="monospace" font-size="12" fill="#89DDFF">();</text>

  <text x="120" y="138" font-family="monospace" font-size="12" fill="#C792EA">const</text>
  <text x="162" y="138" font-family="monospace" font-size="12" fill="#F5F5F5">port</text>
  <text x="196" y="138" font-family="monospace" font-size="12" fill="#89DDFF">:</text>
  <text x="206" y="138" font-family="monospace" font-size="12" fill="#FFCB6B">number</text>
  <text x="250" y="138" font-family="monospace" font-size="12" fill="#89DDFF">=</text>
  <text x="264" y="138" font-family="monospace" font-size="12" fill="#C3E88D">"eight"</text>
  <text x="318" y="138" font-family="monospace" font-size="12" fill="#89DDFF">;</text>
  <!-- Red squiggly underline -->
  <path d="M264,142 l3,-3 l3,3 l3,-3 l3,3 l3,-3 l3,3 l3,-3 l3,3 l3,-3 l3,3 l3,-3 l3,3 l3,-3 l3,3 l3,-3 l3,3" stroke="#FF3B3B" stroke-width="1.5" fill="none"/>

  <text x="120" y="158" font-family="monospace" font-size="12" fill="#F5F5F5"> </text>
  <text x="120" y="178" font-family="monospace" font-size="12" fill="#C792EA">const</text>
  <text x="162" y="178" font-family="monospace" font-size="12" fill="#F5F5F5">data</text>
  <text x="192" y="178" font-family="monospace" font-size="12" fill="#89DDFF">=</text>
  <text x="206" y="178" font-family="monospace" font-size="12" fill="#82AAFF">fetchSync</text>
  <text x="274" y="178" font-family="monospace" font-size="12" fill="#89DDFF">();</text>
  <!-- Red squiggly underline -->
  <path d="M206,182 l3,-3 l3,3 l3,-3 l3,3 l3,-3 l3,3 l3,-3 l3,3 l3,-3 l3,3 l3,-3 l3,3 l3,-3 l3,3 l3,-3 l3,3 l3,-3 l3,3" stroke="#FF3B3B" stroke-width="1.5" fill="none"/>

  <text x="120" y="198" font-family="monospace" font-size="12" fill="#C792EA">let</text>
  <text x="146" y="198" font-family="monospace" font-size="12" fill="#F5F5F5">result</text>
  <text x="192" y="198" font-family="monospace" font-size="12" fill="#89DDFF">=</text>
  <text x="206" y="198" font-family="monospace" font-size="12" fill="#F78C6C">undefined</text>
  <text x="274" y="198" font-family="monospace" font-size="12" fill="#89DDFF">;</text>
  <!-- Yellow squiggly underline -->
  <path d="M146,202 l3,-3 l3,3 l3,-3 l3,3 l3,-3 l3,3 l3,-3 l3,3 l3,-3 l3,3" stroke="#FEBC2E" stroke-width="1.5" fill="none"/>

  <text x="120" y="218" font-family="monospace" font-size="12" fill="#F5F5F5"> </text>
  <text x="120" y="238" font-family="monospace" font-size="12" fill="#82AAFF">server</text>
  <text x="168" y="238" font-family="monospace" font-size="12" fill="#89DDFF">.</text>
  <text x="176" y="238" font-family="monospace" font-size="12" fill="#82AAFF">listen</text>
  <text x="220" y="238" font-family="monospace" font-size="12" fill="#89DDFF">(</text>
  <text x="228" y="238" font-family="monospace" font-size="12" fill="#F5F5F5">port</text>
  <text x="258" y="238" font-family="monospace" font-size="12" fill="#89DDFF">);</text>

  <!-- Problems panel -->
  <rect x="80" y="296" width="440" height="44" fill="#1E2130"/>
  <text x="96" y="316" font-family="monospace" font-size="11" fill="#FF3B3B">2 errors</text>
  <text x="172" y="316" font-family="monospace" font-size="11" fill="#FEBC2E">1 warning</text>
  <text x="264" y="316" font-family="monospace" font-size="11" fill="#6B7280">0 info</text>

  <!-- Sound waves -->
  <!-- Wave group 1 -->
  <path d="M560,200 Q570,160 580,200 Q590,240 600,200" stroke="#FF3B3B" stroke-width="2" fill="none" opacity="0.9"/>
  <path d="M610,200 Q625,140 640,200 Q655,260 670,200" stroke="#FF3B3B" stroke-width="2" fill="none" opacity="0.7"/>
  <path d="M680,200 Q700,120 720,200 Q740,280 760,200" stroke="#FF3B3B" stroke-width="1.5" fill="none" opacity="0.5"/>
  <path d="M770,200 Q795,100 820,200 Q845,300 870,200" stroke="#FF3B3B" stroke-width="1.5" fill="none" opacity="0.3"/>
  <path d="M880,200 Q910,80 940,200 Q970,320 1000,200" stroke="#FF3B3B" stroke-width="1" fill="none" opacity="0.15"/>

  <!-- Small accent dots -->
  <circle cx="555" cy="200" r="3" fill="#FF3B3B" opacity="0.9"/>
  <circle cx="605" cy="200" r="3" fill="#FF3B3B" opacity="0.7"/>
  <circle cx="675" cy="200" r="3" fill="#FF3B3B" opacity="0.5"/>

  <!-- Product name -->
  <text x="780" y="100" font-family="Inter, SF Pro, Segoe UI, sans-serif" font-size="52" font-weight="800" fill="#F5F5F5" text-anchor="middle" letter-spacing="4">FAAAAAAHHH</text>

  <!-- Tagline -->
  <text x="780" y="130" font-family="Inter, SF Pro, Segoe UI, sans-serif" font-size="14" fill="#6B7280" text-anchor="middle" letter-spacing="1">Auditory feedback for diagnostic chaos in Visual Studio Code</text>

  <!-- Version badge -->
  <rect x="730" y="300" width="100" height="24" rx="12" fill="#2A2E3A"/>
  <text x="780" y="316" font-family="Inter, SF Pro, Segoe UI, sans-serif" font-size="11" fill="#6B7280" text-anchor="middle">v0.0.1</text>

  <!-- Subtle bottom line -->
  <rect x="0" y="396" width="1200" height="4" fill="#FF3B3B" opacity="0.6"/>
</svg>
